<svg 
 xmlns="http://www.w3.org/2000/svg"
 xmlns:xlink="http://www.w3.org/1999/xlink"
 width="46px" height="31px">
<path fill-rule="evenodd"  fill="rgb(55, 189, 100)"
 d="M22.997,30.986 C22.997,30.986 22.316,9.985 45.994,7.747 C45.994,7.747 46.505,31.675 22.997,30.986 Z"/>
<path fill-rule="evenodd"  fill="rgb(55, 189, 100)"
 d="M22.997,30.970 C22.997,30.970 23.678,9.984 -0.001,7.747 C-0.001,7.747 -0.512,31.658 22.997,30.970 Z"/>
<path fill-rule="evenodd"  fill="rgb(55, 189, 100)"
 d="M33.719,4.656 C32.304,4.656 31.156,4.195 31.156,3.625 C31.156,3.055 32.304,2.594 33.719,2.594 C35.134,2.594 36.281,3.055 36.281,3.625 C36.281,4.195 35.134,4.656 33.719,4.656 ZM28.109,6.187 C26.703,6.187 25.563,5.726 25.563,5.156 C25.563,4.587 26.703,4.125 28.109,4.125 C29.516,4.125 30.656,4.587 30.656,5.156 C30.656,5.726 29.516,6.187 28.109,6.187 ZM23.000,2.062 C21.585,2.062 20.437,1.601 20.437,1.031 C20.437,0.462 21.585,0.000 23.000,0.000 C24.415,0.000 25.563,0.462 25.563,1.031 C25.563,1.601 24.415,2.062 23.000,2.062 ZM17.375,3.625 C15.960,3.625 14.813,3.156 14.813,2.578 C14.813,2.000 15.960,1.531 17.375,1.531 C18.790,1.531 19.937,2.000 19.937,2.578 C19.937,3.156 18.790,3.625 17.375,3.625 ZM12.266,5.688 C10.859,5.688 9.719,5.226 9.719,4.656 C9.719,4.087 10.859,3.625 12.266,3.625 C13.672,3.625 14.813,4.087 14.813,4.656 C14.813,5.226 13.672,5.688 12.266,5.688 ZM23.000,6.187 C24.415,6.187 25.563,6.649 25.563,7.219 C25.563,7.788 24.415,8.250 23.000,8.250 C21.585,8.250 20.437,7.788 20.437,7.219 C20.437,6.649 21.585,6.187 23.000,6.187 Z"/>
</svg>